<svg width="138" height="50" viewBox="0 0 138 50" fill="none" xmlns="http://www.w3.org/2000/svg">
<path d="M5.96406 49.8707C4.06248 49.8707 2.59307 49.3535 1.55584 48.319C0.518614 47.2845 0 45.7974 0 43.8578V9.71983C0 7.78017 0.518614 6.2931 1.55584 5.25862C2.59307 4.22414 4.08409 3.70689 6.02889 3.70689H21.9763C27.1624 3.70689 31.1601 5.0431 33.9692 7.71552C36.8216 10.3448 38.2478 13.9871 38.2478 18.6422C38.2478 23.2974 36.8216 26.9612 33.9692 29.6336C31.1601 32.2629 27.1624 33.5776 21.9763 33.5776H11.9281V43.8578C11.9281 45.7974 11.4095 47.2845 10.3723 48.319C9.37827 49.3535 7.90887 49.8707 5.96406 49.8707ZM11.9281 24.4612H19.9018C24.5693 24.4612 26.9031 22.5216 26.9031 18.6422C26.9031 14.7629 24.5693 12.8233 19.9018 12.8233H11.9281V24.4612Z" fill="white"/>
<path d="M54.3892 50C50.2402 50 47.1718 48.8793 45.1838 46.6379C43.239 44.3535 42.2666 40.8836 42.2666 36.2285V22.6509C42.2666 18.8147 44.1897 16.8965 48.0361 16.8965C49.8945 16.8965 51.3207 17.3922 52.3147 18.3836C53.3087 19.375 53.8057 20.7974 53.8057 22.6509V36.5517C53.8057 39.6552 55.1455 41.2069 57.825 41.2069C59.3808 41.2069 60.6557 40.6466 61.6498 39.5259C62.6438 38.4052 63.1408 36.9181 63.1408 35.0647V22.6509C63.1408 18.8147 65.064 16.8965 68.9104 16.8965C70.7687 16.8965 72.1949 17.3922 73.1889 18.3836C74.1829 19.375 74.6799 20.7974 74.6799 22.6509V44.0517C74.6799 47.931 72.8216 49.8707 69.1048 49.8707C65.7771 49.8707 63.8971 48.319 63.4649 45.2155C61.3905 48.4052 58.3652 50 54.3892 50Z" fill="white"/>
<path d="M112.836 12.306C108.73 12.306 106.678 10.4526 106.678 6.74569C106.678 3.08189 108.73 1.25 112.836 1.25C114.824 1.25 116.337 1.72414 117.374 2.67241C118.454 3.62069 118.995 4.97844 118.995 6.74569C118.995 8.55603 118.454 9.93534 117.374 10.8836C116.337 11.8319 114.824 12.306 112.836 12.306ZM89.8874 49.8707C88.029 49.8707 86.6028 49.375 85.6088 48.3836C84.6148 47.3922 84.1178 45.9483 84.1178 44.0517V25.9483H82.4323C79.5367 25.9483 78.0889 24.5259 78.0889 21.681C78.0889 18.8793 79.5367 17.4784 82.4323 17.4784H84.1178C84.2907 13.125 85.5224 9.84914 87.8129 7.65086C90.1467 5.45258 93.5177 4.11638 97.9259 3.64224L99.7411 3.44827C101.167 3.27586 102.291 3.44827 103.112 3.96552C103.976 4.43965 104.56 5.0862 104.862 5.90517C105.165 6.68103 105.251 7.5 105.122 8.36207C104.992 9.22414 104.668 9.95689 104.149 10.5603C103.631 11.1638 102.961 11.5086 102.14 11.5948L100.973 11.6595C98.9847 11.7888 97.6018 12.2629 96.8239 13.0819C96.0459 13.8578 95.657 15 95.657 16.5086V17.4784H112.577C114.435 17.4784 115.861 18.0172 116.855 19.0948C117.849 20.1724 118.346 21.7026 118.346 23.6853V43.5991C118.346 45.625 117.849 47.1767 116.855 48.2543C115.905 49.3319 114.478 49.8707 112.577 49.8707C110.718 49.8707 109.292 49.3319 108.298 48.2543C107.304 47.1767 106.807 45.625 106.807 43.5991V25.9483H95.657V44.0517C95.657 47.931 93.7338 49.8707 89.8874 49.8707Z" fill="white"/>
<path d="M132.117 11.7511C131.274 11.7511 130.496 11.6056 129.783 11.3147C129.07 11.0129 128.443 10.5981 127.903 10.07C127.374 9.53125 126.958 8.90625 126.655 8.19504C126.364 7.47306 126.218 6.6972 126.218 5.86746C126.218 5.03772 126.364 4.26724 126.655 3.55603C126.958 2.84483 127.374 2.22522 127.903 1.6972C128.443 1.15841 129.07 0.743535 129.783 0.452586C130.507 0.150862 131.285 0 132.117 0C132.949 0 133.721 0.150862 134.435 0.452586C135.148 0.743535 135.769 1.15841 136.298 1.6972C136.839 2.22522 137.254 2.84483 137.546 3.55603C137.849 4.26724 138 5.03772 138 5.86746C138 6.6972 137.849 7.47306 137.546 8.19504C137.254 8.90625 136.839 9.53125 136.298 10.07C135.769 10.5981 135.148 11.0129 134.435 11.3147C133.721 11.6056 132.949 11.7511 132.117 11.7511ZM132.117 10.7166C133.046 10.7166 133.867 10.5065 134.58 10.0862C135.304 9.65517 135.872 9.07328 136.282 8.34052C136.693 7.60776 136.898 6.78341 136.898 5.86746C136.898 4.95151 136.693 4.12716 136.282 3.3944C135.872 2.66164 135.304 2.08513 134.58 1.66487C133.867 1.24461 133.046 1.03448 132.117 1.03448C131.188 1.03448 130.361 1.24461 129.637 1.66487C128.913 2.08513 128.346 2.66164 127.936 3.3944C127.525 4.12716 127.32 4.95151 127.32 5.86746C127.32 6.78341 127.525 7.60776 127.936 8.34052C128.346 9.07328 128.913 9.65517 129.637 10.0862C130.361 10.5065 131.188 10.7166 132.117 10.7166ZM130.448 9.375C129.745 9.375 129.394 9.01401 129.394 8.29203V3.68534C129.394 3.28664 129.502 2.97953 129.718 2.76401C129.934 2.53772 130.242 2.42457 130.642 2.42457H132.587C133.376 2.42457 133.986 2.62392 134.418 3.02263C134.85 3.42134 135.067 3.91164 135.067 4.49353C135.067 4.9569 134.948 5.33944 134.71 5.64116C134.483 5.94289 134.159 6.15841 133.738 6.28772C133.954 6.3416 134.137 6.46552 134.289 6.65948C134.44 6.84267 134.57 7.13901 134.678 7.54849L134.84 8.13039C134.948 8.56142 134.888 8.87931 134.661 9.08405C134.445 9.27802 134.148 9.375 133.77 9.375C133.241 9.375 132.917 9.09483 132.798 8.53448L132.506 7.35453C132.463 7.16056 132.382 7.03125 132.263 6.9666C132.155 6.89116 132.031 6.85345 131.89 6.85345H131.517V8.29203C131.517 9.01401 131.161 9.375 130.448 9.375ZM131.501 5.33405H132.279C132.798 5.33405 133.057 5.10237 133.057 4.63901C133.057 4.17565 132.798 3.94397 132.279 3.94397H131.501V5.33405Z" fill="white"/>
</svg>
