<svg width="158" height="24" viewBox="0 0 158 24" fill="none" xmlns="http://www.w3.org/2000/svg">
<path d="M28.8 3.20001H37.8C40 3.20001 41.6 3.80001 42.6 4.80001C43.3 5.50001 43.7 6.40001 43.7 7.60001C43.7 9.60001 42.5 10.8 41 11.5C43.1 12.2 44.5 13.4 44.5 15.8V16C44.5 19 42 20.9 37.8 20.9H28.8V3.20001ZM36.6 10.3C38.1 10.3 38.9 9.80001 38.9 8.80001V8.70001C38.9 7.70001 38.1 7.20001 36.7 7.20001H33.5V10.3H36.6ZM37.3 16.9C38.8 16.9 39.6 16.3 39.6 15.3V15.2C39.6 14.2 38.8 13.6 37.2 13.6H33.5V16.8H37.3V16.9Z" fill="#455560"/>
<path d="M74.1 3.20001H78.7L85.9 12.5V3.20001H90.7V20.8H86.4L78.9 11.1V20.8H74.1V3.20001Z" fill="#455560"/>
<path d="M61.6 20.8H56.3L68.7 3.20001H73V20.8H68.6V18.2H63.3L61.6 20.8ZM68.6 14.6V10.5L65.8 14.6H68.6Z" fill="#455560"/>
<path d="M130 3.20001H134.4V14.4L142.2 3.20001H147.4L135.1 20.8H130V3.20001Z" fill="#D11242"/>
<path d="M91.9 3.20001H98.7C105 3.20001 108.6 6.80001 108.6 11.9V12C108.6 17.1 104.9 20.9 98.6 20.9H91.9V3.20001V3.20001ZM98.8 16.5C101.7 16.5 103.7 14.9 103.7 12C103.7 9.20001 101.8 7.50001 98.8 7.50001H96.8V16.5H98.8Z" fill="#455560"/>
<path d="M109.4 3.20001H114.3V16.5H122.8V20.8H109.4V3.20001Z" fill="#D11242"/>
<path d="M124 3.20001H128.9V20.8H124V3.20001Z" fill="#D11242"/>
<path d="M50.1 15.5H52.2L55.3 20.2L58.1 16.1L57.1 14.7C59.3 13.8 60.7 12 60.7 9.30001V9.20001C60.7 7.50001 60.2 6.10001 59.1 5.10001C57.9 3.90001 56.1 3.20001 53.4 3.20001H45.1V20.8H50L50.1 15.5ZM50.1 7.50001H53.3C54.9 7.50001 55.9 8.20001 55.9 9.60001V9.70001C55.9 11 54.9 11.8 53.3 11.8H50.1V7.50001Z" fill="#455560"/>
<path d="M147.8 13.9H156.3V10.1H147.8V7.40001H157.1V3.20001H148.9L143 11.7V20.9H157.3V16.7H147.8V13.9Z" fill="#D11242"/>
<path d="M11.8 0C5.3 0 0 5.3 0 11.8C0 18.3 5.3 23.6 11.8 23.6C18.3 23.6 23.6 18.3 23.6 11.8C23.6 5.3 18.3 0 11.8 0ZM17.1 16.6L14.7 18.4L11.7 14.3L8.9 18.4L6.4 16.6L9.4 12.7L4.8 11.1L5.8 8.3L10.3 10.1V5.2H13.4V10.1L17.9 8.3L18.8 11.1L14 12.7L17.1 16.6Z" fill="#D11242"/>
</svg>
